<svg width="1470" height="782" viewBox="0 0 1470 782" fill="none" xmlns="http://www.w3.org/2000/svg">
<path d="M394.39 781.66C320.42 781.66 253.51 764.48 193.62 730.1C133.71 695.73 86.59 648.86 52.22 589.49C17.85 530.12 0.669983 463.98 0.669983 391.06C0.669983 318.14 17.85 250.71 52.22 191.85C86.6 133.02 133.71 86.3801 193.62 52.0101C253.5 17.6301 320.42 0.450195 394.39 0.450195C452.72 0.450195 507.13 11.6502 557.66 34.0402C608.17 56.4502 651.14 88.4801 686.56 130.13L574.06 244.18C552.18 218.16 525.87 198.63 495.16 185.59C464.42 172.58 430.83 166.06 394.38 166.06C351.66 166.06 313.92 175.71 281.11 194.97C248.3 214.26 222.77 240.55 204.56 273.87C186.32 307.21 177.22 346.27 177.22 391.05C177.22 435.83 186.33 473.61 204.56 507.45C222.77 541.31 248.31 567.87 281.11 587.13C313.92 606.42 351.66 616.04 394.38 616.04C430.83 616.04 464.42 609.54 495.16 596.51C525.87 583.5 552.18 563.97 574.06 537.92L686.56 651.97C651.14 693.65 608.17 725.68 557.66 748.06C507.13 770.45 452.71 781.65 394.39 781.65V781.66Z" fill="#303030"/>
<path d="M1075.61 781.66C1002.69 781.66 936.56 764.23 877.18 729.32C817.81 694.43 770.67 647.29 735.78 587.92C700.87 528.55 683.44 462.42 683.44 389.49C683.44 316.56 700.87 250.97 735.78 192.63C770.67 134.31 817.81 87.7102 877.18 52.7902C936.55 17.9102 1002.69 0.450195 1075.61 0.450195C1148.53 0.450195 1216.23 17.6301 1275.6 52.0101C1334.97 86.3801 1382.09 133.01 1417 191.85C1451.88 250.71 1469.34 316.6 1469.34 389.49C1469.34 462.38 1451.88 528.55 1417 587.92C1382.09 647.29 1334.97 694.43 1275.6 729.32C1216.23 764.23 1149.56 781.66 1075.61 781.66ZM1075.61 616.05C1118.31 616.05 1156.08 606.43 1188.88 587.14C1221.69 567.88 1247.21 541.05 1265.44 506.67C1283.65 472.3 1292.78 433.24 1292.78 389.49C1292.78 345.74 1283.4 307.22 1264.66 273.88C1245.91 240.55 1220.37 214.26 1188.1 194.98C1155.8 175.72 1118.31 166.07 1075.6 166.07C1032.89 166.07 996.7 175.72 963.89 194.98C931.08 214.27 905.55 240.56 887.34 273.88C869.1 307.22 860 345.75 860 389.49C860 433.23 869.11 472.3 887.34 506.67C905.55 541.05 931.09 567.88 963.89 587.14C996.7 606.43 1033.93 616.05 1075.6 616.05H1075.61Z" fill="#303030"/>
<path d="M478.33 296.5H983.5C1031.29 296.5 1070.09 335.3 1070.09 383.09C1070.09 430.88 1031.29 469.68 983.5 469.68H478.33C430.54 469.68 391.74 430.88 391.74 383.09C391.74 335.3 430.54 296.5 478.33 296.5Z" fill="#E9342E"/>
</svg>
