<svg width="1501" height="282" viewBox="0 0 1501 282" fill="none" xmlns="http://www.w3.org/2000/svg">
<path d="M382.02 277.72V92.87H424.38V277.72H382.02ZM504.88 277.72V167.58C504.88 155.26 501.03 145.69 493.33 138.89C485.63 132.09 476.13 128.68 464.83 128.68C457.13 128.68 450.26 130.22 444.23 133.3C438.19 136.38 433.38 140.81 429.79 146.59C426.19 152.37 424.4 159.37 424.4 167.58L407.84 158.34C407.84 144.22 410.92 132.03 417.08 121.75C423.24 111.48 431.58 103.46 442.11 97.68C452.63 91.9 464.45 89.02 477.54 89.02C490.63 89.02 502.44 91.85 512.97 97.49C523.49 103.14 531.84 111.1 538 121.37C544.16 131.64 547.24 143.97 547.24 158.34V277.73H504.88V277.72ZM627.73 277.72V167.58C627.73 155.26 623.88 145.69 616.18 138.89C608.48 132.09 598.98 128.68 587.68 128.68C580.23 128.68 573.43 130.22 567.27 133.3C561.11 136.38 556.23 140.81 552.64 146.59C549.04 152.37 547.25 159.37 547.25 167.58L523.37 158.34C524.65 144.22 528.76 132.03 535.69 121.75C542.62 111.48 551.54 103.46 562.45 97.68C573.36 91.9 585.36 89.02 598.46 89.02C611.56 89.02 623.88 91.85 634.66 97.49C645.44 103.14 654.04 111.1 660.46 121.37C666.87 131.64 670.09 143.97 670.09 158.34V277.73H627.73V277.72Z" fill="#FF9334"/>
<path d="M698.2 277.72V0.439941H740.56V138.31L733.24 182.98L740.56 228.04V277.72H698.2ZM797.18 281.57C783.06 281.57 770.47 278.55 759.44 272.52C748.4 266.49 739.73 258.21 733.45 247.68C727.15 237.16 724.01 225.22 724.01 211.86V158.71C724.01 145.36 727.22 133.43 733.64 122.89C740.05 112.37 748.79 104.09 759.83 98.0499C770.87 92.0199 783.32 88.9999 797.19 88.9999C813.88 88.9999 828.96 93.2999 842.44 101.9C855.92 110.51 866.57 122.06 874.4 136.56C882.23 151.07 886.15 167.44 886.15 185.66C886.15 203.88 882.23 219.87 874.4 234.38C866.56 248.89 855.91 260.38 842.44 268.85C828.96 277.32 813.88 281.56 797.19 281.56L797.18 281.57ZM790.24 241.52C800.51 241.52 809.56 239.15 817.39 234.39C825.22 229.64 831.38 223.03 835.88 214.56C840.37 206.09 842.62 196.33 842.62 185.29C842.62 174.25 840.37 164.49 835.88 156.02C831.39 147.55 825.22 140.94 817.39 136.19C809.56 131.44 800.51 129.06 790.24 129.06C779.97 129.06 770.85 131.44 762.9 136.19C754.94 140.94 748.78 147.55 744.41 156.02C740.04 164.49 737.86 174.25 737.86 185.29C737.86 196.33 740.04 206.09 744.41 214.56C748.77 223.03 754.94 229.65 762.9 234.39C770.85 239.14 779.97 241.52 790.24 241.52Z" fill="#FF9334"/>
<path d="M927.72 58.9699C920.53 58.9699 914.56 56.5299 909.81 51.6499C905.06 46.7799 902.68 40.7399 902.68 33.5499C902.68 26.3599 905.05 20.3299 909.81 15.4499C914.56 10.5799 920.53 8.12988 927.72 8.12988C934.91 8.12988 941.2 10.5699 945.82 15.4499C950.44 20.3299 952.75 26.3699 952.75 33.5499C952.75 40.7299 950.44 46.7799 945.82 51.6499C941.2 56.5299 935.16 58.9699 927.72 58.9699ZM906.54 277.72V92.8699H948.9V277.72H906.54Z" fill="#FF9334"/>
<path d="M980.87 277.72V92.87H1023.23V277.72H980.87ZM1107.57 277.72V171.04C1107.57 158.72 1103.65 148.58 1095.82 140.62C1087.99 132.66 1077.91 128.68 1065.59 128.68C1057.37 128.68 1050.05 130.48 1043.64 134.07C1037.22 137.67 1032.21 142.68 1028.62 149.09C1025.02 155.51 1023.23 162.83 1023.23 171.04L1006.67 161.8C1006.67 147.68 1009.75 135.17 1015.91 124.25C1022.07 113.34 1030.6 104.74 1041.52 98.45C1052.43 92.16 1064.69 89.02 1078.3 89.02C1091.91 89.02 1104.49 92.55 1115.27 99.61C1126.05 106.67 1134.53 115.78 1140.69 126.95C1146.85 138.12 1149.93 149.74 1149.93 161.8V277.72H1107.57Z" fill="#FF9334"/>
<path d="M1255.06 281.57C1238.37 281.57 1223.29 277.33 1209.81 268.86C1196.33 260.39 1185.67 248.9 1177.85 234.39C1170.01 219.89 1166.1 203.65 1166.1 185.67C1166.1 167.69 1170.01 151.08 1177.85 136.57C1185.68 122.07 1196.34 110.51 1209.81 101.91C1223.29 93.3098 1238.37 89.0098 1255.06 89.0098C1269.18 89.0098 1281.69 92.0298 1292.61 98.0598C1303.52 104.1 1312.19 112.38 1318.61 122.9C1325.02 133.43 1328.24 145.37 1328.24 158.72V211.87C1328.24 225.22 1325.09 237.16 1318.8 247.69C1312.51 258.22 1303.84 266.5 1292.81 272.53C1281.77 278.56 1269.19 281.58 1255.07 281.58L1255.06 281.57ZM1262 241.52C1277.66 241.52 1290.31 236.26 1299.93 225.73C1309.56 215.21 1314.37 201.73 1314.37 185.29C1314.37 174.25 1312.19 164.49 1307.82 156.02C1303.45 147.55 1297.36 140.94 1289.53 136.19C1281.7 131.44 1272.52 129.06 1261.99 129.06C1251.46 129.06 1242.67 131.44 1234.84 136.19C1227.01 140.94 1220.84 147.55 1216.36 156.02C1211.86 164.49 1209.62 174.25 1209.62 185.29C1209.62 196.33 1211.86 206.09 1216.36 214.56C1220.85 223.03 1227.01 229.65 1234.84 234.39C1242.67 239.14 1251.72 241.52 1261.99 241.52H1262ZM1311.68 277.72V228.04L1319 182.98L1311.68 138.31V92.8698H1354.04V277.72H1311.68Z" fill="#FF9334"/>
<path d="M1369.44 131.37V92.8598H1500.38V131.37H1369.44ZM1413.73 277.72V15.8398H1456.09V277.72H1413.73Z" fill="#FF9334"/>
<path d="M97.4199 281.57C79.1899 281.57 62.6899 277.33 47.9299 268.86C33.1599 260.39 21.5501 248.83 13.0801 234.2C4.61008 219.57 0.370117 203.26 0.370117 185.29C0.370117 167.32 4.61008 150.69 13.0801 136.19C21.5501 121.69 33.1699 110.19 47.9299 101.72C62.6899 93.2498 79.1799 89.0098 97.4199 89.0098C111.8 89.0098 125.21 91.7698 137.66 97.2898C150.11 102.81 160.7 110.71 169.43 120.97L141.7 149.08C136.31 142.67 129.82 137.85 122.25 134.64C114.67 131.43 106.39 129.83 97.4099 129.83C86.8799 129.83 77.58 132.21 69.49 136.96C61.4 141.71 55.1101 148.19 50.6201 156.41C46.1201 164.63 43.8799 174.26 43.8799 185.29C43.8799 196.32 46.1201 205.64 50.6201 213.98C55.1101 222.33 61.4 228.87 69.49 233.62C77.58 238.37 86.8799 240.75 97.4099 240.75C106.39 240.75 114.67 239.15 122.25 235.94C129.82 232.73 136.31 227.92 141.7 221.5L169.43 249.61C160.7 259.88 150.11 267.78 137.66 273.29C125.2 278.81 111.79 281.57 97.4199 281.57Z" fill="url(#paint0_linear_7_114)"/>
<path d="M242.63 161.979H118.11C106.32 161.979 96.77 171.54 96.77 183.32C96.77 195.1 106.33 204.659 118.11 204.659H242.63C254.42 204.659 263.97 195.1 263.97 183.32C263.97 171.54 254.41 161.979 242.63 161.979Z" fill="url(#paint1_linear_7_114)"/>
<path d="M349.48 136.19C340.87 121.69 329.26 110.19 314.63 101.72C300 93.2498 283.56 89.0098 265.33 89.0098C247.1 89.0098 231.06 93.3098 216.42 101.91C201.79 110.52 190.17 122 181.57 136.38C179.37 140.05 177.46 143.85 175.82 147.75H224.86C228.48 143.49 232.79 139.89 237.79 136.95C245.88 132.2 255.05 129.82 265.33 129.82C275.61 129.82 285.1 132.2 293.06 136.95C301.01 141.7 307.31 148.18 311.93 156.4C316.55 164.62 318.86 174.11 318.86 184.9C318.86 195.69 316.61 205.31 312.12 213.78C307.63 222.25 301.34 228.87 293.25 233.61C285.16 238.36 275.86 240.74 265.33 240.74C254.8 240.74 245.88 238.37 237.79 233.61C231.42 229.87 226.17 224.95 222.03 218.89H174.5C176.39 224.04 178.74 229.01 181.56 233.8C190.16 248.43 201.78 260.05 216.41 268.65C231.04 277.26 247.35 281.55 265.32 281.55C283.29 281.55 299.98 277.25 314.62 268.65C329.25 260.05 340.87 248.43 349.47 233.8C358.07 219.17 362.37 202.87 362.37 184.89C362.37 166.91 358.07 150.68 349.47 136.17L349.48 136.19Z" fill="url(#paint2_linear_7_114)"/>
<defs>
<linearGradient id="paint0_linear_7_114" x1="362.62" y1="185.29" x2="7.79012" y2="185.29" gradientUnits="userSpaceOnUse">
<stop stop-color="#FF9334"/>
<stop offset="1" stop-color="#E9342E"/>
</linearGradient>
<linearGradient id="paint1_linear_7_114" x1="362.62" y1="183.329" x2="7.79005" y2="183.329" gradientUnits="userSpaceOnUse">
<stop stop-color="#FF9334"/>
<stop offset="1" stop-color="#E9342E"/>
</linearGradient>
<linearGradient id="paint2_linear_7_114" x1="362.62" y1="185.29" x2="7.7899" y2="185.29" gradientUnits="userSpaceOnUse">
<stop stop-color="#FF9334"/>
<stop offset="1" stop-color="#E9342E"/>
</linearGradient>
</defs>
</svg>
