<svg width="48" height="48" viewBox="0 0 48 48" fill="none" xmlns="http://www.w3.org/2000/svg">
<path d="M12.8677 36.5318C10.4502 36.5318 8.26342 35.9703 6.30607 34.8467C4.34807 33.7234 2.80807 32.1916 1.68478 30.2512C0.561485 28.3109 0 26.1493 0 23.7661C0 21.3829 0.561485 19.1791 1.68478 17.2554C2.8084 15.3327 4.34807 13.8084 6.30607 12.6851C8.26309 11.5615 10.4502 11 12.8677 11C14.7741 11 16.5523 11.366 18.2038 12.0978C19.8546 12.8302 21.2589 13.877 22.4165 15.2383L18.7398 18.9657C18.0247 18.1153 17.1648 17.477 16.1611 17.0508C15.1565 16.6256 14.0587 16.4125 12.8674 16.4125C11.4712 16.4125 10.2378 16.7279 9.16545 17.3574C8.09314 17.9878 7.25876 18.847 6.66361 19.936C6.06749 21.0257 5.77008 22.3022 5.77008 23.7657C5.77008 25.2293 6.06781 26.464 6.66361 27.57C7.25876 28.6766 8.09347 29.5447 9.16545 30.1741C10.2378 30.8046 11.4712 31.119 12.8674 31.119C14.0587 31.119 15.1565 30.9065 16.1611 30.4807C17.1648 30.0555 18.0247 29.4172 18.7398 28.5658L22.4165 32.2932C21.2589 33.6554 19.8546 34.7023 18.2038 35.4337C16.5523 36.1655 14.7738 36.5315 12.8677 36.5315V36.5318Z" fill="url(#paint0_linear_8_7)"/>
<path d="M15.6115 20.6748H32.1216C33.6835 20.6748 34.9516 21.9429 34.9516 23.5048C34.9516 25.0667 33.6835 26.3348 32.1216 26.3348H15.6115C14.0496 26.3348 12.7815 25.0667 12.7815 23.5048C12.7815 21.9429 14.0496 20.6748 15.6115 20.6748Z" fill="url(#paint1_linear_8_7)"/>
<path d="M46.2891 17.2554C45.1482 15.3327 43.6082 13.8084 41.6678 12.6851C39.7275 11.5615 37.5485 11 35.1317 11C32.7148 11 30.5872 11.5706 28.6465 12.7106C26.7062 13.8515 25.1655 15.3749 24.0252 17.2809C23.7337 17.7679 23.4801 18.2709 23.2634 18.7889H29.7662C30.247 18.2244 30.8179 17.747 31.4804 17.3574C32.5527 16.7279 33.7695 16.4125 35.1313 16.4125C36.4932 16.4125 37.7525 16.7279 38.8081 17.3574C39.8628 17.9878 40.6975 18.847 41.3103 19.936C41.9231 21.0257 42.2293 22.2849 42.2293 23.7144C42.2293 25.144 41.9309 26.4209 41.3358 27.5442C40.74 28.6678 39.9059 29.5447 38.8336 30.1741C37.7613 30.8046 36.5272 31.119 35.1317 31.119C33.7361 31.119 32.553 30.8046 31.4807 30.1741C30.6356 29.678 29.9404 29.0257 29.3913 28.2223H23.0898C23.3408 28.9051 23.652 29.5643 24.0255 30.1996C25.1658 32.14 26.7065 33.6806 28.6468 34.8209C30.5872 35.9618 32.7488 36.5315 35.132 36.5315C37.5152 36.5315 39.7278 35.9618 41.6682 34.8209C43.6085 33.6806 45.1485 32.14 46.2894 30.1996C47.4294 28.2593 48 26.098 48 23.7144C48 21.3309 47.4294 19.1784 46.2894 17.2551L46.2891 17.2554Z" fill="url(#paint2_linear_8_7)"/>
<defs>
<linearGradient id="paint0_linear_8_7" x1="48.0307" y1="23.7661" x2="0.983088" y2="23.7661" gradientUnits="userSpaceOnUse">
<stop stop-color="#FF9334"/>
<stop offset="1" stop-color="#E9342E"/>
</linearGradient>
<linearGradient id="paint1_linear_8_7" x1="48.0311" y1="23.5051" x2="0.983474" y2="23.5051" gradientUnits="userSpaceOnUse">
<stop stop-color="#FF9334"/>
<stop offset="1" stop-color="#E9342E"/>
</linearGradient>
<linearGradient id="paint2_linear_8_7" x1="48.0308" y1="23.7661" x2="0.983136" y2="23.7661" gradientUnits="userSpaceOnUse">
<stop stop-color="#FF9334"/>
<stop offset="1" stop-color="#E9342E"/>
</linearGradient>
</defs>
</svg>
