<svg width="1501" height="282" viewBox="0 0 1501 282" fill="none" xmlns="http://www.w3.org/2000/svg">
<path d="M382 277.72V92.87H424.36V277.72H382ZM504.85 277.72V167.58C504.85 155.26 501 145.69 493.3 138.89C485.6 132.09 476.1 128.68 464.8 128.68C457.1 128.68 450.23 130.22 444.2 133.3C438.16 136.38 433.35 140.81 429.76 146.59C426.16 152.37 424.37 159.37 424.37 167.58L407.81 158.34C407.81 144.22 410.89 132.03 417.05 121.75C423.21 111.48 431.55 103.46 442.08 97.68C452.6 91.9 464.42 89.02 477.51 89.02C490.6 89.02 502.41 91.85 512.94 97.49C523.46 103.14 531.81 111.1 537.97 121.37C544.13 131.64 547.21 143.97 547.21 158.34V277.73H504.85V277.72ZM627.7 277.72V167.58C627.7 155.26 623.85 145.69 616.15 138.89C608.45 132.09 598.95 128.68 587.65 128.68C580.2 128.68 573.4 130.22 567.24 133.3C561.08 136.38 556.2 140.81 552.61 146.59C549.01 152.37 547.22 159.37 547.22 167.58L523.34 158.34C524.62 144.22 528.73 132.03 535.66 121.75C542.59 111.48 551.51 103.46 562.42 97.68C573.33 91.9 585.33 89.02 598.43 89.02C611.53 89.02 623.85 91.85 634.63 97.49C645.41 103.14 654.01 111.1 660.43 121.37C666.84 131.64 670.06 143.97 670.06 158.34V277.73H627.7V277.72Z" fill="white"/>
<path d="M698.18 277.72V0.439941H740.54V138.31L733.22 182.98L740.54 228.04V277.72H698.18ZM797.15 281.57C783.03 281.57 770.44 278.55 759.41 272.52C748.37 266.49 739.7 258.21 733.42 247.68C727.12 237.16 723.98 225.22 723.98 211.86V158.71C723.98 145.36 727.19 133.43 733.61 122.89C740.02 112.37 748.76 104.09 759.8 98.0499C770.84 92.0199 783.29 88.9999 797.16 88.9999C813.85 88.9999 828.93 93.2999 842.41 101.9C855.89 110.51 866.54 122.06 874.37 136.56C882.2 151.07 886.12 167.44 886.12 185.66C886.12 203.88 882.2 219.87 874.37 234.38C866.53 248.89 855.88 260.38 842.41 268.85C828.93 277.32 813.85 281.56 797.16 281.56L797.15 281.57ZM790.22 241.52C800.49 241.52 809.54 239.15 817.37 234.39C825.2 229.64 831.36 223.03 835.86 214.56C840.35 206.09 842.6 196.33 842.6 185.29C842.6 174.25 840.35 164.49 835.86 156.02C831.37 147.55 825.2 140.94 817.37 136.19C809.54 131.44 800.49 129.06 790.22 129.06C779.95 129.06 770.83 131.44 762.88 136.19C754.92 140.94 748.76 147.55 744.39 156.02C740.02 164.49 737.84 174.25 737.84 185.29C737.84 196.33 740.02 206.09 744.39 214.56C748.75 223.03 754.92 229.65 762.88 234.39C770.83 239.14 779.95 241.52 790.22 241.52Z" fill="white"/>
<path d="M927.7 58.9699C920.51 58.9699 914.54 56.5299 909.79 51.6499C905.04 46.7799 902.66 40.7399 902.66 33.5499C902.66 26.3599 905.03 20.3299 909.79 15.4499C914.54 10.5799 920.51 8.12988 927.7 8.12988C934.89 8.12988 941.18 10.5699 945.8 15.4499C950.42 20.3299 952.73 26.3699 952.73 33.5499C952.73 40.7299 950.42 46.7799 945.8 51.6499C941.18 56.5299 935.14 58.9699 927.7 58.9699ZM906.52 277.72V92.8699H948.88V277.72H906.52Z" fill="white"/>
<path d="M980.84 277.72V92.87H1023.2V277.72H980.84ZM1107.54 277.72V171.04C1107.54 158.72 1103.62 148.58 1095.79 140.62C1087.96 132.66 1077.88 128.68 1065.56 128.68C1057.34 128.68 1050.02 130.48 1043.61 134.07C1037.19 137.67 1032.18 142.68 1028.59 149.09C1024.99 155.51 1023.2 162.83 1023.2 171.04L1006.64 161.8C1006.64 147.68 1009.72 135.17 1015.88 124.25C1022.04 113.34 1030.57 104.74 1041.49 98.45C1052.4 92.16 1064.66 89.02 1078.27 89.02C1091.88 89.02 1104.46 92.55 1115.24 99.61C1126.02 106.67 1134.5 115.78 1140.66 126.95C1146.82 138.12 1149.9 149.74 1149.9 161.8V277.72H1107.54Z" fill="white"/>
<path d="M1255.04 281.57C1238.35 281.57 1223.27 277.33 1209.79 268.86C1196.31 260.39 1185.65 248.9 1177.83 234.39C1169.99 219.89 1166.08 203.65 1166.08 185.67C1166.08 167.69 1169.99 151.08 1177.83 136.57C1185.66 122.07 1196.32 110.51 1209.79 101.91C1223.27 93.3098 1238.35 89.0098 1255.04 89.0098C1269.16 89.0098 1281.67 92.0298 1292.59 98.0598C1303.5 104.1 1312.17 112.38 1318.59 122.9C1325 133.43 1328.22 145.37 1328.22 158.72V211.87C1328.22 225.22 1325.07 237.16 1318.78 247.69C1312.49 258.22 1303.82 266.5 1292.79 272.53C1281.75 278.56 1269.16 281.58 1255.05 281.58L1255.04 281.57ZM1261.97 241.52C1277.63 241.52 1290.28 236.26 1299.9 225.73C1309.53 215.21 1314.34 201.73 1314.34 185.29C1314.34 174.25 1312.16 164.49 1307.79 156.02C1303.42 147.55 1297.33 140.94 1289.5 136.19C1281.67 131.44 1272.49 129.06 1261.96 129.06C1251.43 129.06 1242.64 131.44 1234.81 136.19C1226.98 140.94 1220.81 147.55 1216.33 156.02C1211.83 164.49 1209.59 174.25 1209.59 185.29C1209.59 196.33 1211.83 206.09 1216.33 214.56C1220.82 223.03 1226.98 229.65 1234.81 234.39C1242.64 239.14 1251.69 241.52 1261.96 241.52H1261.97ZM1311.65 277.72V228.04L1318.97 182.98L1311.65 138.31V92.8698H1354.01V277.72H1311.65Z" fill="white"/>
<path d="M1369.42 131.37V92.8598H1500.36V131.37H1369.42ZM1413.7 277.72V15.8398H1456.06V277.72H1413.7Z" fill="white"/>
<path d="M97.4004 281.57C79.1704 281.57 62.6702 277.33 47.9102 268.86C33.1402 260.39 21.5296 248.83 13.0596 234.2C4.58957 219.56 0.349609 203.26 0.349609 185.29C0.349609 167.32 4.58957 150.69 13.0596 136.19C21.5296 121.69 33.1502 110.19 47.9102 101.72C62.6702 93.2498 79.1604 89.0098 97.4004 89.0098C111.78 89.0098 125.19 91.7698 137.64 97.2898C150.09 102.81 160.68 110.71 169.41 120.97L141.68 149.08C136.29 142.67 129.8 137.85 122.23 134.64C114.65 131.43 106.37 129.83 97.3896 129.83C86.8596 129.83 77.5597 132.21 69.4697 136.96C61.3797 141.71 55.0896 148.19 50.5996 156.41C46.0996 164.63 43.8604 174.26 43.8604 185.29C43.8604 196.32 46.0996 205.64 50.5996 213.98C55.0896 222.33 61.3797 228.87 69.4697 233.62C77.5597 238.37 86.8596 240.75 97.3896 240.75C106.37 240.75 114.65 239.15 122.23 235.94C129.8 232.73 136.29 227.92 141.68 221.5L169.41 249.61C160.68 259.88 150.09 267.78 137.64 273.29C125.18 278.81 111.77 281.57 97.4004 281.57Z" fill="white"/>
<path d="M265.31 281.57C247.34 281.57 231.04 277.27 216.4 268.67C201.77 260.07 190.15 248.45 181.55 233.82C172.94 219.19 168.65 202.89 168.65 184.91C168.65 166.93 172.95 150.77 181.55 136.39C190.15 122.01 201.77 110.53 216.4 101.92C231.04 93.3196 247.34 89.0195 265.31 89.0195C283.28 89.0195 299.97 93.2596 314.61 101.73C329.24 110.2 340.86 121.7 349.46 136.2C358.06 150.71 362.36 166.95 362.36 184.92C362.36 202.89 358.06 219.2 349.46 233.83C340.85 248.47 329.24 260.08 314.61 268.68C299.97 277.29 283.54 281.58 265.31 281.58V281.57ZM265.31 240.75C275.84 240.75 285.14 238.38 293.23 233.62C301.32 228.87 307.61 222.26 312.1 213.79C316.59 205.32 318.84 195.69 318.84 184.91C318.84 174.13 316.53 164.63 311.91 156.41C307.29 148.2 300.99 141.72 293.04 136.96C285.08 132.21 275.84 129.83 265.31 129.83C254.78 129.83 245.86 132.21 237.77 136.96C229.68 141.71 223.39 148.19 218.9 156.41C214.4 164.63 212.16 174.12 212.16 184.91C212.16 195.7 214.4 205.32 218.9 213.79C223.39 222.26 229.68 228.88 237.77 233.62C245.86 238.37 255.03 240.75 265.31 240.75Z" fill="white"/>
<path d="M242.61 161.979H118.09C106.3 161.979 96.75 171.54 96.75 183.32C96.75 195.1 106.31 204.659 118.09 204.659H242.61C254.4 204.659 263.95 195.1 263.95 183.32C263.95 171.54 254.39 161.979 242.61 161.979Z" fill="#E9342E"/>
</svg>
