<svg width="1500" height="282" viewBox="0 0 1500 282" fill="none" xmlns="http://www.w3.org/2000/svg">
<path d="M381.64 277.28V92.4301H424V277.28H381.64ZM504.5 277.28V167.14C504.5 154.82 500.65 145.25 492.95 138.45C485.25 131.65 475.75 128.24 464.45 128.24C456.75 128.24 449.88 129.78 443.85 132.86C437.81 135.94 433 140.37 429.41 146.15C425.81 151.93 424.02 158.93 424.02 167.14L407.46 157.9C407.46 143.78 410.54 131.59 416.7 121.31C422.86 111.04 431.2 103.02 441.73 97.2401C452.25 91.4601 464.07 88.5801 477.16 88.5801C490.25 88.5801 502.06 91.4101 512.59 97.0501C523.11 102.7 531.46 110.66 537.62 120.93C543.78 131.2 546.86 143.53 546.86 157.9V277.29H504.5V277.28ZM627.35 277.28V167.14C627.35 154.82 623.5 145.25 615.8 138.45C608.1 131.65 598.6 128.24 587.3 128.24C579.85 128.24 573.05 129.78 566.89 132.86C560.73 135.94 555.85 140.37 552.26 146.15C548.66 151.93 546.87 158.93 546.87 167.14L522.99 157.9C524.27 143.78 528.38 131.59 535.31 121.31C542.24 111.04 551.16 103.02 562.07 97.2401C572.98 91.4601 584.98 88.5801 598.08 88.5801C611.18 88.5801 623.5 91.4101 634.28 97.0501C645.06 102.7 653.66 110.66 660.08 120.93C666.49 131.2 669.71 143.53 669.71 157.9V277.29H627.35V277.28Z" fill="#303030"/>
<path d="M697.82 277.28V0H740.18V137.87L732.86 182.54L740.18 227.6V277.28H697.82ZM796.8 281.13C782.68 281.13 770.09 278.11 759.06 272.08C748.02 266.05 739.35 257.77 733.07 247.24C726.77 236.72 723.63 224.78 723.63 211.42V158.27C723.63 144.92 726.84 132.99 733.26 122.45C739.67 111.93 748.41 103.65 759.45 97.61C770.49 91.58 782.94 88.56 796.81 88.56C813.5 88.56 828.58 92.86 842.06 101.46C855.54 110.07 866.19 121.62 874.02 136.12C881.85 150.63 885.77 167 885.77 185.22C885.77 203.44 881.85 219.43 874.02 233.94C866.18 248.45 855.53 259.94 842.06 268.41C828.58 276.88 813.5 281.12 796.81 281.12L796.8 281.13ZM789.86 241.08C800.13 241.08 809.18 238.71 817.01 233.95C824.84 229.2 831 222.59 835.5 214.12C839.99 205.65 842.24 195.89 842.24 184.85C842.24 173.81 839.99 164.05 835.5 155.58C831.01 147.11 824.84 140.5 817.01 135.75C809.18 131 800.13 128.62 789.86 128.62C779.59 128.62 770.47 131 762.52 135.75C754.56 140.5 748.4 147.11 744.03 155.58C739.66 164.05 737.48 173.81 737.48 184.85C737.48 195.89 739.66 205.65 744.03 214.12C748.39 222.59 754.56 229.21 762.52 233.95C770.47 238.7 779.59 241.08 789.86 241.08Z" fill="#303030"/>
<path d="M927.34 58.5299C920.15 58.5299 914.18 56.0899 909.43 51.2099C904.68 46.3399 902.3 40.2999 902.3 33.1099C902.3 25.9199 904.67 19.8899 909.43 15.0099C914.18 10.1399 920.15 7.68994 927.34 7.68994C934.53 7.68994 940.82 10.1299 945.44 15.0099C950.06 19.8899 952.37 25.9299 952.37 33.1099C952.37 40.2899 950.06 46.3399 945.44 51.2099C940.82 56.0899 934.78 58.5299 927.34 58.5299ZM906.16 277.28V92.4299H948.52V277.28H906.16Z" fill="#303030"/>
<path d="M980.49 277.28V92.4301H1022.85V277.28H980.49ZM1107.19 277.28V170.6C1107.19 158.28 1103.27 148.14 1095.44 140.18C1087.61 132.22 1077.53 128.24 1065.21 128.24C1056.99 128.24 1049.67 130.04 1043.26 133.63C1036.84 137.23 1031.83 142.24 1028.24 148.65C1024.64 155.07 1022.85 162.39 1022.85 170.6L1006.29 161.36C1006.29 147.24 1009.37 134.73 1015.53 123.81C1021.69 112.9 1030.22 104.3 1041.14 98.0101C1052.05 91.7201 1064.31 88.5801 1077.92 88.5801C1091.53 88.5801 1104.11 92.1101 1114.89 99.1701C1125.67 106.23 1134.15 115.34 1140.31 126.51C1146.47 137.68 1149.55 149.3 1149.55 161.36V277.28H1107.19Z" fill="#303030"/>
<path d="M1254.69 281.13C1238 281.13 1222.92 276.89 1209.44 268.42C1195.96 259.95 1185.3 248.46 1177.48 233.95C1169.64 219.45 1165.73 203.21 1165.73 185.23C1165.73 167.25 1169.64 150.64 1177.48 136.13C1185.31 121.63 1195.97 110.07 1209.44 101.47C1222.92 92.8698 1238 88.5698 1254.69 88.5698C1268.81 88.5698 1281.32 91.5898 1292.24 97.6198C1303.15 103.66 1311.82 111.94 1318.24 122.46C1324.65 132.99 1327.87 144.93 1327.87 158.28V211.43C1327.87 224.78 1324.72 236.72 1318.43 247.25C1312.14 257.78 1303.47 266.06 1292.44 272.09C1281.4 278.12 1268.81 281.14 1254.7 281.14L1254.69 281.13ZM1261.62 241.08C1277.28 241.08 1289.93 235.82 1299.55 225.29C1309.18 214.77 1313.99 201.29 1313.99 184.85C1313.99 173.81 1311.81 164.05 1307.44 155.58C1303.07 147.11 1296.98 140.5 1289.15 135.75C1281.32 131 1272.14 128.62 1261.61 128.62C1251.08 128.62 1242.29 131 1234.46 135.75C1226.63 140.5 1220.46 147.11 1215.98 155.58C1211.48 164.05 1209.24 173.81 1209.24 184.85C1209.24 195.89 1211.48 205.65 1215.98 214.12C1220.47 222.59 1226.63 229.21 1234.46 233.95C1242.29 238.7 1251.34 241.08 1261.61 241.08H1261.62ZM1311.3 277.28V227.6L1318.62 182.54L1311.3 137.87V92.4298H1353.66V277.28H1311.3Z" fill="#303030"/>
<path d="M1369.06 130.93V92.4199H1500V130.93H1369.06ZM1413.35 277.28V15.3999H1455.71V277.28H1413.35Z" fill="#303030"/>
<path d="M97.05 281.13C78.82 281.13 62.32 276.89 47.56 268.42C32.79 259.95 21.18 248.39 12.71 233.76C4.24 219.12 0 202.82 0 184.85C0 166.88 4.24 150.25 12.71 135.75C21.18 121.25 32.8 109.75 47.56 101.28C62.32 92.8098 78.81 88.5698 97.05 88.5698C111.43 88.5698 124.84 91.3298 137.29 96.8498C149.74 102.37 160.33 110.27 169.06 120.53L141.33 148.64C135.94 142.23 129.45 137.41 121.88 134.2C114.3 130.99 106.02 129.39 97.04 129.39C86.51 129.39 77.21 131.77 69.12 136.52C61.03 141.27 54.74 147.75 50.25 155.97C45.75 164.19 43.51 173.82 43.51 184.85C43.51 195.88 45.75 205.2 50.25 213.54C54.74 221.89 61.03 228.43 69.12 233.18C77.21 237.93 86.51 240.31 97.04 240.31C106.02 240.31 114.3 238.71 121.88 235.5C129.45 232.29 135.94 227.48 141.33 221.06L169.06 249.17C160.33 259.44 149.74 267.34 137.29 272.85C124.83 278.37 111.42 281.13 97.05 281.13Z" fill="#303030"/>
<path d="M264.96 281.13C246.99 281.13 230.69 276.83 216.05 268.23C201.42 259.63 189.8 248.01 181.2 233.38C172.59 218.75 168.3 202.45 168.3 184.47C168.3 166.49 172.6 150.33 181.2 135.95C189.8 121.57 201.42 110.09 216.05 101.48C230.69 92.8796 246.99 88.5796 264.96 88.5796C282.93 88.5796 299.62 92.8196 314.26 101.29C328.89 109.76 340.51 121.26 349.11 135.76C357.71 150.27 362.01 166.51 362.01 184.48C362.01 202.45 357.71 218.76 349.11 233.39C340.5 248.03 328.89 259.64 314.26 268.24C299.62 276.85 283.19 281.14 264.96 281.14V281.13ZM264.96 240.31C275.49 240.31 284.79 237.94 292.88 233.18C300.97 228.43 307.26 221.82 311.75 213.35C316.24 204.88 318.49 195.25 318.49 184.47C318.49 173.69 316.18 164.19 311.56 155.97C306.94 147.76 300.64 141.28 292.69 136.52C284.73 131.77 275.49 129.39 264.96 129.39C254.43 129.39 245.51 131.77 237.42 136.52C229.33 141.27 223.04 147.75 218.55 155.97C214.05 164.19 211.81 173.68 211.81 184.47C211.81 195.26 214.05 204.88 218.55 213.35C223.04 221.82 229.33 228.44 237.42 233.18C245.51 237.93 254.68 240.31 264.96 240.31Z" fill="#303030"/>
<path d="M242.25 161.54H117.73C105.94 161.54 96.39 171.1 96.39 182.88C96.39 194.66 105.95 204.22 117.73 204.22H242.25C254.04 204.22 263.59 194.66 263.59 182.88C263.59 171.1 254.03 161.54 242.25 161.54Z" fill="#E9342E"/>
</svg>
